<svg width="80" height="80" viewBox="0 0 80 80" fill="none" xmlns="http://www.w3.org/2000/svg">
<path d="M58.2415 44.1725C60.1058 41.4068 61.0682 38.1312 60.9962 34.7957C60.9245 31.4604 59.8218 28.2292 57.8399 25.5468C55.8582 22.8642 53.0944 20.862 49.9291 19.8151C46.7638 18.7684 43.3519 18.7289 40.1633 19.7017C36.9745 20.6747 34.1651 22.6123 32.1217 25.2483C30.0783 27.8841 28.901 31.0889 28.7517 34.4215C25.813 35.1197 23.179 36.7515 21.2445 39.0726C19.3098 41.394 18.1783 44.2795 18.0193 47.2982C17.8605 50.3166 18.6826 53.3055 20.3629 55.8174L18.4055 60.2947C18.2871 60.5614 18.2819 60.8647 18.3912 61.1351C18.5005 61.4057 18.7149 61.6203 18.9853 61.7296C19.2555 61.8391 19.5587 61.8339 19.8252 61.7153L24.2992 59.7135C26.826 61.3694 29.8207 62.162 32.835 61.9725C35.8496 61.7829 38.7218 60.6218 41.0216 58.6625C43.3214 56.7032 44.9254 54.0513 45.5937 51.1033C48.5402 50.9931 51.3991 50.0694 53.8534 48.4341L59.1447 50.8019C59.3442 50.8899 59.5652 50.9163 59.7798 50.8779C59.9944 50.8396 60.1925 50.7382 60.3493 50.5867C60.5069 50.434 60.6139 50.2365 60.6563 50.0211C60.6986 49.8055 60.6741 49.5824 60.5859 49.3812L58.2415 44.1725ZM31.9783 59.8643C29.493 59.9006 27.0607 59.1469 25.0307 57.7118C24.8769 57.6004 24.6963 57.5318 24.5074 57.513C24.3185 57.494 24.1279 57.5254 23.9552 57.6041L21.4816 58.7019L22.5786 56.2265C22.6542 56.0518 22.6819 55.8601 22.6594 55.6709C22.6367 55.4819 22.5643 55.3021 22.4495 55.1503C20.847 53.0221 20.009 50.4156 20.0707 47.7517C20.1323 45.0878 21.0902 42.5228 22.7894 40.471C24.4885 38.4196 26.8297 37.0016 29.4342 36.4467C32.0384 35.8917 34.7535 36.2322 37.1407 37.4131C39.5275 38.594 41.4465 40.5462 42.5873 42.9537C43.728 45.3613 44.0238 48.0835 43.4267 50.6803C42.8297 53.2771 41.3747 55.5962 39.297 57.2631C37.2195 58.9297 34.6411 59.8462 31.9782 59.8643L31.9783 59.8643ZM54.1547 46.325C53.9819 46.2463 53.7914 46.2148 53.6025 46.2338C53.4136 46.2527 53.233 46.3213 53.0792 46.4326C51.0017 47.9705 48.5355 48.895 45.9595 49.1017V48.1116C45.9709 45.6469 45.3324 43.2228 44.1087 41.084C42.8848 38.9451 41.119 37.1671 38.9894 35.9292C36.8596 34.6915 34.4414 34.0377 31.9786 34.034H30.9031C31.116 31.1392 32.2233 28.3824 34.0714 26.145C35.9197 23.9081 38.4172 22.3016 41.2186 21.5486C44.0197 20.7953 46.9857 20.9327 49.7054 21.9414C52.425 22.9501 54.764 24.7803 56.3979 27.1785C58.032 29.5767 58.8801 32.4241 58.8251 35.3261C58.77 38.2282 57.8144 41.0411 56.0906 43.3757C55.9758 43.5275 55.9034 43.7073 55.8807 43.8963C55.8582 44.0855 55.8859 44.2772 55.9615 44.4519L57.4242 47.7668L54.1547 46.325Z" fill="#CC9F33"/>
</svg>
