<svg width="80" height="80" viewBox="0 0 80 80" fill="none" xmlns="http://www.w3.org/2000/svg">
<path d="M40.441 29.3809C47.4826 29.3809 53.8846 32.1499 58.6036 36.661C63.3527 41.1869 66.3898 47.4844 66.7172 54.4815V54.5115C66.7322 55.1368 66.2408 55.658 65.6156 55.6877H65.5708L15.3105 55.6872C14.6852 55.6872 14.1641 55.1811 14.1641 54.5408V54.4663C14.1641 54.4365 14.1641 54.3917 14.1791 54.3619C14.5216 47.4093 17.5735 41.1714 22.2927 36.6603C27.012 32.1349 33.399 29.3809 40.4407 29.3809L40.441 29.3809ZM57.0255 38.3135C52.723 34.1896 46.8722 31.6737 40.441 31.6737C34.0097 31.6737 28.1736 34.2045 23.8711 38.3135C19.8068 42.1991 17.0971 47.4844 16.5465 53.3943H64.3507C63.7847 47.469 61.0753 42.1843 57.0261 38.3135H57.0255Z" fill="#CC9F33"/>
<path d="M12.4238 57.3105C11.7985 57.3105 11.2773 57.8167 11.2773 58.457C11.2773 59.0822 11.7835 59.6034 12.4238 59.6034H68.4458C69.0711 59.6034 69.5922 59.0972 69.5922 58.457C69.5922 57.8317 69.0861 57.3105 68.4458 57.3105H12.4238Z" fill="#CC9F33"/>
<path d="M40.4412 21C41.7365 21 42.8827 21.655 43.7166 22.7121C44.4759 23.6799 44.9671 25.0197 45.0119 26.4787C45.0269 27.1039 44.5355 27.6398 43.9103 27.6549H43.8805H37.0175C36.3923 27.6549 35.8711 27.1487 35.8711 26.5084V26.4786C35.8711 26.4339 35.8711 26.4041 35.8861 26.3596C35.9607 24.9304 36.437 23.6501 37.1814 22.6972C38.0001 21.6553 39.1465 21 40.4415 21L40.4412 21ZM41.9152 24.1265C41.5131 23.6053 40.9921 23.2928 40.4412 23.2928C39.8903 23.2928 39.3694 23.6055 38.9673 24.1265C38.6993 24.469 38.4759 24.9006 38.342 25.377H42.5552C42.3915 24.9006 42.1831 24.469 41.9152 24.1265Z" fill="#CC9F33"/>
<path d="M41.6835 27.3442C41.6835 26.7189 41.1773 26.1978 40.5371 26.1978C39.8968 26.1978 39.3906 26.7039 39.3906 27.3442V31.3489C39.3906 31.9742 39.8968 32.4953 40.5371 32.4953C41.1623 32.4953 41.6835 31.9892 41.6835 31.3489V27.3442Z" fill="#CC9F33"/>
</svg>
