<svg width="80" height="80" viewBox="0 0 80 80" fill="none" xmlns="http://www.w3.org/2000/svg">
<path d="M50.9328 59H28.1328" stroke="#CC9F33" stroke-width="2" stroke-linecap="round"/>
<path d="M40.5312 53.9331C40.5312 54.4854 40.0835 54.9331 39.5312 54.9331C38.979 54.9331 38.5312 54.4854 38.5312 53.9331H40.5312ZM38.5312 53.9331V47.5998H40.5312V53.9331H38.5312Z" fill="#CC9F33"/>
<path d="M23.0667 43.7999C23.0667 43.7999 18 39.9999 18 33.6665C18 31.2185 18 29.149 18 27.5311C18 25.6469 18 24.7048 18.5858 24.119C19.1716 23.5332 20.1144 23.5332 22 23.5332H24.1333C26.019 23.5332 26.9618 23.5332 27.5475 24.119C28.1333 24.7048 28.1333 25.6476 28.1333 27.5332V31.1332" stroke="#CC9F33" stroke-width="2" stroke-linecap="round"/>
<path d="M55.9997 43.7999C55.9997 43.7999 61.0664 39.9999 61.0664 33.6665C61.0664 31.2185 61.0664 29.149 61.0664 27.5311C61.0664 25.6469 61.0664 24.7048 60.4806 24.119C59.8948 23.5332 58.952 23.5332 57.0664 23.5332H54.9331C53.0475 23.5332 52.1046 23.5332 51.5189 24.119C50.9331 24.7048 50.9331 25.6476 50.9331 27.5332V31.1332" stroke="#CC9F33" stroke-width="2" stroke-linecap="round"/>
<path d="M50.9328 39.1259V23C50.9328 21.8954 50.0374 21 48.9328 21H30.1328C29.0282 21 28.1328 21.8954 28.1328 23V39.1259C28.1328 40.4633 28.8012 41.7123 29.914 42.4541L38.9781 48.4969C39.314 48.7208 39.7516 48.7208 40.0875 48.4969L49.1516 42.4541C50.2644 41.7123 50.9328 40.4633 50.9328 39.1259Z" stroke="#CC9F33" stroke-width="2"/>
</svg>
