<svg width="80" height="80" viewBox="0 0 80 80" fill="none" xmlns="http://www.w3.org/2000/svg">
<path d="M49.582 52.3245H41.9154L33.3862 57.9978C32.1212 58.8411 30.4154 57.9403 30.4154 56.407V52.3245C24.6654 52.3245 20.832 48.4912 20.832 42.7412V31.241C20.832 25.491 24.6654 21.6577 30.4154 21.6577H49.582C55.332 21.6577 59.1654 25.491 59.1654 31.241V42.7412C59.1654 48.4912 55.332 52.3245 49.582 52.3245Z" stroke="#CC9F33" stroke-width="2" stroke-miterlimit="10" stroke-linecap="round" stroke-linejoin="round"/>
<path d="M40.0019 38.7729V38.3705C40.0019 37.0672 40.807 36.3772 41.612 35.8213C42.3978 35.2847 43.1835 34.5947 43.1835 33.3297C43.1835 31.5663 41.7653 30.1479 40.0019 30.1479C38.2386 30.1479 36.8203 31.5663 36.8203 33.3297" stroke="#CC9F33" stroke-width="2" stroke-linecap="round" stroke-linejoin="round"/>
<path d="M39.9927 43.3538H40.0099" stroke="#CC9F33" stroke-width="2" stroke-linecap="round" stroke-linejoin="round"/>
</svg>
