<svg width="112" height="112" viewBox="0 0 112 112" fill="none" xmlns="http://www.w3.org/2000/svg">
<g filter="url(#filter0_b_35_11136)">
<rect width="112" height="112" rx="9" fill="#CC9F33" fill-opacity="0.28"/>
<rect x="0.5" y="0.5" width="111" height="111" rx="8.5" stroke="#CC9F33" stroke-opacity="0.36"/>
<path d="M81 73.0864V54.7548C81 52.9892 80.9985 52.1059 80.7914 51.2844C80.6079 50.5563 80.3066 49.8673 79.8989 49.2447C79.4389 48.5421 78.7992 47.9595 77.5174 46.7969L62.2174 32.9192C59.8376 30.7606 58.6477 29.6818 57.3085 29.2713C56.1285 28.9096 54.8708 28.9096 53.6908 29.2713C52.3527 29.6815 51.1645 30.7592 48.7883 32.9146L33.4832 46.7969C32.2014 47.9595 31.562 48.5421 31.1019 49.2447C30.6942 49.8673 30.3906 50.5563 30.2071 51.2844C30 52.1059 30 52.9892 30 54.7548V73.0864C30 76.1655 30 77.7045 30.4853 78.9189C31.1323 80.5382 32.3725 81.8262 33.9346 82.497C35.1061 83 36.5913 83 39.5617 83C42.5321 83 44.0189 83 45.1904 82.497C46.7525 81.8262 47.9924 80.5385 48.6394 78.9192C49.1247 77.7048 49.125 76.1652 49.125 73.0861V69.7818C49.125 66.1321 51.9792 63.1734 55.5 63.1734C59.0208 63.1734 61.875 66.1321 61.875 69.7818V73.0861C61.875 76.1652 61.875 77.7048 62.3603 78.9192C63.0073 80.5385 64.2475 81.8262 65.8096 82.497C66.9811 83 68.4663 83 71.4367 83C74.4071 83 75.8939 83 77.0654 82.497C78.6275 81.8262 79.8674 80.5382 80.5144 78.9189C80.9997 77.7045 81 76.1655 81 73.0864Z" stroke="#CC9F33" stroke-width="2" stroke-linecap="round" stroke-linejoin="round"/>
</g>
<defs>
<filter id="filter0_b_35_11136" x="-13.9" y="-13.9" width="139.8" height="139.8" filterUnits="userSpaceOnUse" color-interpolation-filters="sRGB">
<feFlood flood-opacity="0" result="BackgroundImageFix"/>
<feGaussianBlur in="BackgroundImageFix" stdDeviation="6.95"/>
<feComposite in2="SourceAlpha" operator="in" result="effect1_backgroundBlur_35_11136"/>
<feBlend mode="normal" in="SourceGraphic" in2="effect1_backgroundBlur_35_11136" result="shape"/>
</filter>
</defs>
</svg>
