<svg width="82" height="80" viewBox="0 0 82 80" fill="none" xmlns="http://www.w3.org/2000/svg">
<path d="M56.5691 34.8459L54.122 54.0021C53.9432 55.1081 53.4623 56.1285 52.7343 56.8563C52.0283 57.562 51.1004 58 49.9936 58H30.0071C28.9002 58 27.9723 57.562 27.2663 56.8563C26.5326 56.1228 26.0503 55.093 25.8743 53.9771L23.4315 34.8457H23.2348C22.6198 34.8457 22.0607 34.5945 21.656 34.1899C21.2513 33.7854 21 33.2264 21 32.6116V29.3838C21 28.7694 21.2513 28.21 21.656 27.8055C22.0635 27.4013 22.6216 27.1497 23.2348 27.1497H29.6002C29.2774 26.6322 29.0911 26.0229 29.0911 25.3718C29.0911 24.445 29.468 23.6039 30.0788 22.9918C30.6938 22.3778 31.5357 22 32.4638 22C35.3404 22 37.6031 24.3922 39.1901 26.0714C39.4909 26.389 39.7647 26.6784 40 26.905C40.2352 26.6782 40.5086 26.3889 40.8094 26.0709C42.3976 24.3914 44.6591 22.0001 47.5357 22.0001C48.4633 22.0001 49.307 22.3784 49.9187 22.9894C50.53 23.5977 50.9083 24.4412 50.9083 25.3718C50.9083 26.0239 50.7225 26.6335 50.4011 27.1497H56.7652C57.3779 27.1497 57.9365 27.4013 58.3411 27.8055C58.7483 28.2129 59 28.7713 59 29.3838V32.6116C59 33.2001 58.7676 33.7383 58.3911 34.1382L58.344 34.1899C57.9393 34.5945 57.3797 34.8457 56.7652 34.8457H56.5685L56.5691 34.8459ZM41.9779 27.1498H47.5584C48.5335 27.138 49.3147 26.3486 49.3147 25.3719C49.3147 24.8803 49.1152 24.4353 48.7942 24.1129C48.4751 23.792 48.0295 23.594 47.5363 23.594C45.3452 23.594 43.3681 25.6791 41.9779 27.1496L41.9779 27.1498ZM32.441 27.1498H38.0222C36.6321 25.6792 34.6545 23.5942 32.4642 23.5942C31.9706 23.5942 31.5259 23.7923 31.2063 24.1117C30.884 24.4339 30.6858 24.8785 30.6858 25.372C30.6858 26.3496 31.4638 27.1375 32.4411 27.1498L32.441 27.1498ZM44.39 34.8459V56.4062H49.9938C50.6437 56.4062 51.191 56.1471 51.6078 55.7302C52.1011 55.2371 52.4295 54.5287 52.5551 53.7501L54.9682 34.8458L44.39 34.8459ZM35.6104 56.4062V34.8459H25.0327L27.4458 53.7502C27.5714 54.5288 27.8998 55.2372 28.393 55.7303C28.81 56.1472 29.3573 56.4063 30.0071 56.4063L35.6104 56.4062ZM37.2048 34.8459V56.4062H42.7956V34.8459H37.2048ZM23.2351 33.252H56.7656C56.9411 33.252 57.1021 33.1795 57.2179 33.0638L57.2438 33.0393C57.3445 32.926 57.4062 32.7758 57.4062 32.6117V29.384C57.4062 29.2071 57.3337 29.0462 57.2194 28.9304C57.1036 28.8161 56.9428 28.7437 56.7658 28.7437H23.2352C23.0583 28.7437 22.8978 28.8157 22.7816 28.9304C22.6672 29.0475 22.5948 29.2084 22.5948 29.384V32.6117C22.5948 32.7876 22.6673 32.948 22.783 33.0638C22.8988 33.1796 23.0592 33.2519 23.2352 33.2519L23.2351 33.252Z" fill="#CC9F33"/>
</svg>
