<svg width="80" height="80" viewBox="0 0 80 80" fill="none" xmlns="http://www.w3.org/2000/svg">
<path fill-rule="evenodd" clip-rule="evenodd" d="M28.766 32.1954V59.0575C28.766 59.5785 28.3473 60 27.8298 60H18.9362C18.4187 60 18 59.5785 18 59.0575V32.1954C18 31.6744 18.4187 31.2529 18.9362 31.2529H27.8298C28.3473 31.2529 28.766 31.6744 28.766 32.1954ZM26.8936 33.1379H19.8723V58.1149H26.8936V33.1379ZM45.383 42.5632V59.0575C45.383 59.5785 44.9643 60 44.4468 60H35.5532C35.0357 60 34.617 59.5785 34.617 59.0575V42.5632C34.617 42.0422 35.0357 41.6207 35.5532 41.6207H44.4468C44.9643 41.6207 45.383 42.0422 45.383 42.5632ZM43.5106 43.5057H36.4894V58.1149H43.5106V43.5057ZM62 19.9425V59.0575C62 59.5785 61.5813 60 61.0638 60H52.1702C51.6527 60 51.234 59.5785 51.234 59.0575V19.9425C51.234 19.4215 51.6527 19 52.1702 19H61.0638C61.5813 19 62 19.4215 62 19.9425ZM60.1277 20.8851H53.1064V58.1149H60.1277V20.8851Z" fill="#CC9F33"/>
</svg>
